<svg width="299" height="299" viewBox="0 0 299 299" fill="none" xmlns="http://www.w3.org/2000/svg">
<circle cx="149.5" cy="149.5" r="149.5" fill="#AFA9FF"/>
<path d="M118.177 140.72C118.057 140.86 117.917 141.03 117.757 141.23C117.617 141.43 117.487 141.62 117.367 141.8C116.987 142.48 116.417 143.32 115.657 144.32C114.917 145.3 114.057 146.31 113.077 147.35C112.097 148.37 111.037 149.28 109.897 150.08L107.917 148.49C108.617 148.09 109.297 147.61 109.957 147.05C110.637 146.47 111.267 145.87 111.847 145.25C112.447 144.61 112.967 143.99 113.407 143.39C113.867 142.77 114.227 142.23 114.487 141.77C114.167 141.77 113.647 141.77 112.927 141.77C112.227 141.77 111.387 141.77 110.407 141.77C109.447 141.77 108.417 141.77 107.317 141.77C106.217 141.77 105.127 141.77 104.047 141.77C102.967 141.77 101.957 141.77 101.017 141.77C100.077 141.77 99.2871 141.77 98.6471 141.77C98.0071 141.77 97.5871 141.77 97.3871 141.77C96.8271 141.77 96.2671 141.79 95.7071 141.83C95.1471 141.85 94.5671 141.89 93.9671 141.95V139.22C94.4871 139.3 95.0471 139.37 95.6471 139.43C96.2471 139.47 96.8271 139.49 97.3871 139.49C97.5871 139.49 98.0171 139.49 98.6771 139.49C99.3371 139.49 100.137 139.49 101.077 139.49C102.037 139.49 103.077 139.49 104.197 139.49C105.317 139.49 106.427 139.49 107.527 139.49C108.647 139.49 109.697 139.49 110.677 139.49C111.657 139.49 112.487 139.49 113.167 139.49C113.867 139.49 114.347 139.49 114.607 139.49C114.807 139.49 115.037 139.49 115.297 139.49C115.577 139.47 115.847 139.44 116.107 139.4C116.367 139.36 116.567 139.33 116.707 139.31L118.177 140.72ZM106.207 144.68C106.207 146.3 106.157 147.82 106.057 149.24C105.957 150.66 105.757 151.99 105.457 153.23C105.157 154.47 104.697 155.62 104.077 156.68C103.477 157.72 102.667 158.7 101.647 159.62C100.627 160.52 99.3571 161.35 97.8371 162.11L95.6171 160.31C96.0371 160.17 96.4871 159.99 96.9671 159.77C97.4471 159.53 97.8971 159.26 98.3171 158.96C99.4971 158.26 100.437 157.47 101.137 156.59C101.837 155.71 102.357 154.76 102.697 153.74C103.057 152.7 103.297 151.61 103.417 150.47C103.557 149.31 103.627 148.11 103.627 146.87C103.627 146.49 103.617 146.13 103.597 145.79C103.597 145.45 103.567 145.08 103.507 144.68H106.207ZM121.333 150.17C123.933 149.47 126.353 148.62 128.593 147.62C130.833 146.62 132.783 145.6 134.443 144.56C135.483 143.9 136.493 143.19 137.473 142.43C138.473 141.65 139.413 140.84 140.293 140C141.173 139.16 141.953 138.33 142.633 137.51L144.643 139.37C143.803 140.27 142.893 141.15 141.913 142.01C140.933 142.87 139.893 143.7 138.793 144.5C137.713 145.28 136.583 146.04 135.403 146.78C134.303 147.44 133.063 148.12 131.683 148.82C130.303 149.52 128.833 150.18 127.273 150.8C125.713 151.42 124.133 151.99 122.533 152.51L121.333 150.17ZM133.963 145.82L136.543 145.04V158.72C136.543 159.1 136.543 159.5 136.543 159.92C136.563 160.34 136.583 160.73 136.603 161.09C136.643 161.45 136.683 161.73 136.723 161.93H133.783C133.803 161.73 133.823 161.45 133.843 161.09C133.883 160.73 133.913 160.34 133.933 159.92C133.953 159.5 133.963 159.1 133.963 158.72V145.82ZM153.913 140.42C154.413 140.48 154.963 140.53 155.563 140.57C156.163 140.59 156.703 140.6 157.183 140.6H171.973C172.333 140.6 172.713 140.6 173.113 140.6C173.533 140.58 173.893 140.56 174.193 140.54C174.173 140.88 174.153 141.27 174.133 141.71C174.113 142.13 174.103 142.52 174.103 142.88V158.36C174.103 158.9 174.113 159.46 174.133 160.04C174.173 160.62 174.203 161.03 174.223 161.27H171.523C171.543 161.03 171.553 160.67 171.553 160.19C171.573 159.69 171.583 159.17 171.583 158.63V143H157.213C156.653 143 156.043 143.01 155.383 143.03C154.743 143.05 154.253 143.07 153.913 143.09V140.42ZM153.523 156.98C153.903 157.02 154.393 157.06 154.993 157.1C155.613 157.14 156.233 157.16 156.853 157.16H172.933V159.59H156.913C156.313 159.59 155.693 159.6 155.053 159.62C154.433 159.64 153.923 159.67 153.523 159.71V156.98ZM185.563 139.01C186.103 139.37 186.723 139.82 187.423 140.36C188.123 140.88 188.833 141.44 189.553 142.04C190.293 142.62 190.983 143.19 191.623 143.75C192.263 144.31 192.793 144.8 193.213 145.22L191.323 147.11C190.943 146.73 190.453 146.26 189.853 145.7C189.253 145.14 188.593 144.56 187.873 143.96C187.153 143.34 186.443 142.76 185.743 142.22C185.043 141.66 184.413 141.2 183.853 140.84L185.563 139.01ZM182.983 159.11C184.743 158.85 186.343 158.49 187.783 158.03C189.243 157.57 190.573 157.05 191.773 156.47C192.973 155.89 194.043 155.31 194.983 154.73C196.523 153.77 197.943 152.67 199.243 151.43C200.543 150.17 201.683 148.87 202.663 147.53C203.643 146.19 204.423 144.91 205.003 143.69L206.443 146.24C205.763 147.48 204.923 148.74 203.923 150.02C202.923 151.3 201.793 152.53 200.533 153.71C199.273 154.89 197.883 155.96 196.363 156.92C195.363 157.54 194.263 158.15 193.063 158.75C191.883 159.35 190.583 159.9 189.163 160.4C187.763 160.88 186.233 161.27 184.573 161.57L182.983 159.11Z" fill="black"/>
</svg>
